<?xml version="1.0" encoding="UTF-8" standalone="no"?>
<!-- Created with Inkscape (http://www.inkscape.org/) -->

<svg
   xmlns:dc="http://purl.org/dc/elements/1.1/"
   xmlns:cc="http://creativecommons.org/ns#"
   xmlns:rdf="http://www.w3.org/1999/02/22-rdf-syntax-ns#"
   xmlns:svg="http://www.w3.org/2000/svg"
   xmlns="http://www.w3.org/2000/svg"
   xmlns:xlink="http://www.w3.org/1999/xlink"
   xmlns:sodipodi="http://sodipodi.sourceforge.net/DTD/sodipodi-0.dtd"
   xmlns:inkscape="http://www.inkscape.org/namespaces/inkscape"
   id="svg2816"
   version="1.1"
   inkscape:version="0.47 r22583"
   width="350"
   height="50"
   sodipodi:docname="tiny_quiz.svg"
   inkscape:export-filename="C:\Users\gordonguthrie\Pictures\tiny_quiz.png"
   inkscape:export-xdpi="90"
   inkscape:export-ydpi="90">
  <metadata
     id="metadata2822">
    <rdf:RDF>
      <cc:Work
         rdf:about="">
        <dc:format>image/svg+xml</dc:format>
        <dc:type
           rdf:resource="http://purl.org/dc/dcmitype/StillImage" />
        <dc:title></dc:title>
      </cc:Work>
    </rdf:RDF>
  </metadata>
  <defs
     id="defs2820">
    <inkscape:perspective
       sodipodi:type="inkscape:persp3d"
       inkscape:vp_x="0 : 0.5 : 1"
       inkscape:vp_y="0 : 1000 : 0"
       inkscape:vp_z="1 : 0.5 : 1"
       inkscape:persp3d-origin="0.5 : 0.33333333 : 1"
       id="perspective2824" />
    <inkscape:perspective
       id="perspective2843"
       inkscape:persp3d-origin="0.5 : 0.33333333 : 1"
       inkscape:vp_z="1 : 0.5 : 1"
       inkscape:vp_y="0 : 1000 : 0"
       inkscape:vp_x="0 : 0.5 : 1"
       sodipodi:type="inkscape:persp3d" />
  </defs>
  <sodipodi:namedview
     pagecolor="#ffffff"
     bordercolor="#666666"
     borderopacity="1"
     objecttolerance="10"
     gridtolerance="10"
     guidetolerance="10"
     inkscape:pageopacity="0"
     inkscape:pageshadow="2"
     inkscape:window-width="1600"
     inkscape:window-height="850"
     id="namedview2818"
     showgrid="false"
     inkscape:zoom="2.1343874"
     inkscape:cx="169.82815"
     inkscape:cy="25"
     inkscape:window-x="1272"
     inkscape:window-y="-8"
     inkscape:window-maximized="1"
     inkscape:current-layer="svg2816" />
  <image
     xlink:href="file:///C:/Users/gordonguthrie/Pictures/tiny_logo.jpg"
     width="253"
     height="50"
     id="image2826"
     x="0"
     y="0" />
  <path
     style="fill:none;stroke:#000000;stroke-width:1px;stroke-linecap:butt;stroke-linejoin:miter;stroke-opacity:1"
     d="m 16.866667,25.637037 c 0,1.09321 0,2.18642 0,3.27963 0,0.156173 -0.110431,0.358087 0,0.468518 0.110431,0.110431 0.398676,0.139685 0.468518,0 0.139685,-0.27937 0,-0.624691 0,-0.937037 0,-0.780864 0.09685,-1.567758 0,-2.342592 -0.09877,-0.790179 -0.468518,-1.546265 -0.468518,-2.342593 0,-0.796328 0.337603,-1.557099 0.468518,-2.342593 0.100204,-0.601221 0,-1.742614 0,-2.342592 0,-0.156173 -0.156173,-0.468519 0,-0.468519 0.156173,0 0.04939,0.32036 0,0.468519 -0.110431,0.331292 -0.400032,0.594605 -0.468518,0.937037 -0.09188,0.45942 0,0.937037 0,1.405555 0,1.405556 0,2.811111 0,4.216667 0,0.468519 0,0.937037 0,1.405556 0,0.156172 0,0.624691 0,0.468518 0,-1.249383 0,-2.498765 0,-1.874074 z"
     id="path2834" />
  <path
     style="fill:#000000"
     d="m 0.46851852,25.281111 0,-24.83148137 126.26574148,0 126.26574,0 0,24.83148137 0,24.831482 -126.26574,0 -126.26574148,0 0,-24.831482 z M 42.166667,34.182963 c 0,-0.51537 0.210833,-0.937037 0.468518,-0.937037 0.257685,0 0.468519,-0.421667 0.468519,-0.937037 0,-0.51537 0.210833,-0.937037 0.468518,-0.937037 0.257685,0 0.468519,-0.737917 0.468519,-1.639815 0,-1.145267 0.211949,-1.639815 0.702778,-1.639815 0.390431,0 0.702777,-0.416461 0.702777,-0.937037 0,-0.51537 0.210834,-0.937037 0.468519,-0.937037 0.257685,0 0.468518,-0.421667 0.468518,-0.937037 0,-0.51537 0.210834,-0.937037 0.468519,-0.937037 0.257685,0 0.468518,-0.737917 0.468518,-1.639815 0,-1.561728 -0.07809,-1.639815 -1.639814,-1.639815 -1.509671,0 -1.639815,0.111552 -1.639815,1.405556 0,0.773056 -0.210834,1.405556 -0.468519,1.405556 -0.257685,0 -0.468518,0.527083 -0.468518,1.171296 0,0.85895 -0.249877,1.171296 -0.937037,1.171296 -0.687161,0 -0.937037,-0.312346 -0.937037,-1.171296 0,-0.644213 -0.210834,-1.171296 -0.468519,-1.171296 -0.257685,0 -0.468518,-0.6325 -0.468518,-1.405556 0,-1.353498 -0.07809,-1.405556 -2.108334,-1.405556 -1.561728,0 -2.108333,0.182202 -2.108333,0.702778 0,0.386528 0.210833,0.702778 0.468518,0.702778 0.257686,0 0.468519,0.421667 0.468519,0.937037 0,0.51537 0.210833,0.937037 0.468518,0.937037 0.257686,0 0.468519,0.421667 0.468519,0.937037 0,0.51537 0.210833,0.937037 0.468519,0.937037 0.257685,0 0.468518,0.421667 0.468518,0.937037 0,0.515371 0.210833,0.937037 0.468519,0.937037 0.257685,0 0.468518,0.79679 0.468518,1.770645 0,1.233172 -0.284434,1.975652 -0.937037,2.446022 -0.51537,0.371458 -0.937037,1.155918 -0.937037,1.743244 0,0.953274 0.226245,1.067867 2.108333,1.067867 1.795988,0 2.108334,-0.13882 2.108334,-0.937037 z m 2.811111,0.468518 c 0,-0.257685 -0.210834,-0.468518 -0.468519,-0.468518 -0.257685,0 -0.468518,0.210833 -0.468518,0.468518 0,0.257686 0.210833,0.468519 0.468518,0.468519 0.257685,0 0.468519,-0.210833 0.468519,-0.468519 z M 20.146296,30.200556 c 0,-0.841976 -0.252479,-1.171297 -0.897994,-1.171297 -0.493896,0 -1.004335,-0.263541 -1.134307,-0.585648 -0.141173,-0.349862 -0.251206,-0.255548 -0.273303,0.234259 -0.02034,0.450949 -0.353238,0.819908 -0.739766,0.819908 -0.577533,0 -0.702778,-0.829533 -0.702778,-4.654685 0,-2.560077 0.205615,-5.195494 0.456922,-5.856481 0.414201,-1.089431 0.348492,-1.201797 -0.702777,-1.201797 -1.013026,0 -1.1597,0.207397 -1.1597,1.639815 0,0.901898 -0.210834,1.639814 -0.468519,1.639814 -0.257685,0 -0.468518,0.527084 -0.468518,1.171297 0,0.644213 0.210833,1.171296 0.468518,1.171296 0.682609,0 0.575074,3.620336 -0.11713,3.943364 -0.468518,0.218642 -0.468518,0.327963 0,0.546605 0.322107,0.150317 0.585649,0.99365 0.585649,1.874074 l 0,1.600772 2.576851,0 c 2.436297,0 2.576852,-0.06389 2.576852,-1.171296 z m 4.216667,-3.982408 0,-5.153704 -1.171296,0 -1.171297,0 0,5.153704 0,5.153704 1.171297,0 1.171296,0 0,-5.153704 z m 4.685185,2.791337 c 0,-2.236677 0.18199,-2.676686 1.874074,-4.531085 0.651564,-0.714066 0.713817,-0.712881 0.854261,0.01626 0.08332,0.43255 0.346858,0.786453 0.585648,0.786453 0.238791,0 0.434165,1.370417 0.434165,3.04537 0,2.93605 0.04205,3.045371 1.171297,3.045371 1.167799,0 1.171296,-0.01339 1.171296,-4.484392 0,-5.591085 -0.185278,-5.823016 -4.651719,-5.823016 l -3.313096,0 0,5.153704 c 0,4.841358 0.05679,5.153704 0.937037,5.153704 0.813144,0 0.937037,-0.312346 0.937037,-2.362367 z m -8.901852,-6.804864 c 0,-1.035321 -0.179048,-1.181815 -1.288426,-1.054167 -0.922515,0.106147 -1.330945,0.447631 -1.438141,1.202416 -0.127363,0.896775 0.065,1.054167 1.288426,1.054167 1.231597,0 1.438141,-0.172689 1.438141,-1.202416 z m 8.901852,-2.545732 c 0,-0.257685 -0.210833,-0.468519 -0.468518,-0.468519 -0.257686,0 -0.468519,0.210834 -0.468519,0.468519 0,0.257685 0.210833,0.468518 0.468519,0.468518 0.257685,0 0.468518,-0.210833 0.468518,-0.468518 z m -4.685185,-1.639815 c 0,-0.937037 -0.234259,-1.171296 -1.171296,-1.171296 -0.937037,0 -1.171297,0.234259 -1.171297,1.171296 0,0.937037 0.23426,1.171296 1.171297,1.171296 0.937037,0 1.171296,-0.234259 1.171296,-1.171296 z M 169.13519,12.631111 c 0,-0.257685 -0.21084,-0.468518 -0.46852,-0.468518 -0.25769,0 -0.46852,0.210833 -0.46852,0.468518 0,0.257685 0.21083,0.468519 0.46852,0.468519 0.25768,0 0.46852,-0.210834 0.46852,-0.468519 z m 0,-1.874074 c 0,-0.257685 -0.21084,-0.468518 -0.46852,-0.468518 -0.25769,0 -0.46852,0.210833 -0.46852,0.468518 0,0.257685 0.21083,0.468519 0.46852,0.468519 0.25768,0 0.46852,-0.210834 0.46852,-0.468519 z m 6.35846,-0.200793 c 0.7743,-0.7743013 0.88218,-1.673281 0.20079,-1.673281 -0.25768,0 -0.46851,0.2108333 -0.46851,0.4685185 0,0.2576852 -0.31625,0.4685185 -0.70278,0.4685185 -0.38653,0 -0.70278,0.31625 -0.70278,0.702778 0,0.888069 0.80262,0.904122 1.67328,0.03347 l 0,0 z"
     id="path2838" />
  <path
     style="fill:#000000"
     d=""
     id="path2840" />
  <path
     style="fill:#000000"
     d="m 0.46851852,25.281111 0,-24.83148137 126.26574148,0 126.26574,0 0,24.83148137 0,24.831482 -126.26574,0 -126.26574148,0 0,-24.831482 z M 42.166667,34.182963 c 0,-0.51537 0.210833,-0.937037 0.468518,-0.937037 0.257685,0 0.468519,-0.409224 0.468519,-0.909387 0,-0.500162 0.210833,-1.039688 0.468518,-1.198946 0.257685,-0.159259 0.468519,-0.909618 0.468519,-1.667466 0,-0.912458 0.237393,-1.377905 0.702778,-1.377905 0.390431,0 0.702777,-0.416461 0.702777,-0.937037 0,-0.51537 0.210834,-0.937037 0.468519,-0.937037 0.257685,0 0.468518,-0.409224 0.468518,-0.909386 0,-0.500163 0.210834,-1.039689 0.468519,-1.198947 0.257685,-0.159259 0.468518,-0.922976 0.468518,-1.69715 0,-1.30582 -0.110092,-1.396975 -1.522685,-1.260775 -1.268787,0.122333 -1.547405,0.361651 -1.670935,1.43524 -0.08154,0.708634 -0.345079,1.288426 -0.585648,1.288426 -0.240569,0 -0.437398,0.527083 -0.437398,1.171296 0,0.85895 -0.249877,1.171296 -0.937037,1.171296 -0.687161,0 -0.937037,-0.312346 -0.937037,-1.171296 0,-0.644213 -0.19683,-1.171296 -0.437399,-1.171296 -0.240569,0 -0.50411,-0.579792 -0.585648,-1.288426 -0.132655,-1.152892 -0.357711,-1.303581 -2.139453,-1.432495 -1.551951,-0.112287 -1.991204,0.01691 -1.991204,0.585648 0,0.401345 0.210833,0.729717 0.468518,0.729717 0.257686,0 0.468519,0.421667 0.468519,0.937037 0,0.51537 0.210833,0.937037 0.468518,0.937037 0.257686,0 0.468519,0.421667 0.468519,0.937037 0,0.51537 0.210833,0.937037 0.468519,0.937037 0.257685,0 0.468518,0.421667 0.468518,0.937037 0,0.515371 0.210833,0.937037 0.468519,0.937037 0.257685,0 0.468518,0.841547 0.468518,1.870104 0,1.362695 -0.254243,2.028882 -0.937037,2.455293 -0.51537,0.321854 -0.937037,1.061558 -0.937037,1.643785 0,0.942287 0.231646,1.058596 2.108333,1.058596 1.795988,0 2.108334,-0.13882 2.108334,-0.937037 z M 20.146296,30.200556 c 0,-0.841976 -0.252479,-1.171297 -0.897994,-1.171297 -0.493896,0 -1.004335,-0.263541 -1.134307,-0.585648 -0.141173,-0.349862 -0.251206,-0.255548 -0.273303,0.234259 -0.02034,0.450949 -0.37869,0.819908 -0.796326,0.819908 -0.670004,0 -0.736399,-0.68899 -0.564365,-5.856482 0.179577,-5.394097 0.128556,-5.856481 -0.646219,-5.856481 -0.649014,0 -0.841189,0.374627 -0.841189,1.639815 0,0.901898 -0.210834,1.639814 -0.468519,1.639814 -0.257685,0 -0.468518,0.527084 -0.468518,1.171297 0,0.644213 0.230214,1.171296 0.511586,1.171296 0.312499,0 0.471298,0.866057 0.408058,2.225463 -0.05694,1.224005 -0.07632,3.016088 -0.04307,3.982407 l 0.06046,1.756945 2.576851,0 c 2.436297,0 2.576852,-0.06389 2.576852,-1.171296 z m 4.216667,-3.982408 0,-5.153704 -1.171296,0 -1.171297,0 0,5.153704 0,5.153704 1.171297,0 1.171296,0 0,-5.153704 z m 4.685185,2.689194 c 0,-2.003912 0.22731,-2.709654 1.216265,-3.776197 1.15095,-1.241248 1.250791,-1.266151 1.859174,-0.463731 0.381055,0.502587 0.648977,2.040615 0.657809,3.776197 0.01429,2.807138 0.06334,2.928241 1.186197,2.928241 1.166039,0 1.171229,-0.01945 1.156396,-4.333796 -0.01949,-5.667538 -0.255426,-5.973612 -4.604807,-5.973612 l -3.345108,0 0,5.153704 c 0,4.841358 0.05679,5.153704 0.937037,5.153704 0.818279,0 0.937037,-0.312346 0.937037,-2.46451 z m -8.901852,-6.671601 c 0,-0.923073 -0.237601,-1.171297 -1.12117,-1.171297 -1.01416,0 -1.689941,0.764736 -1.689941,1.912393 0,0.23661 0.6325,0.4302 1.405556,0.4302 1.186913,0 1.405555,-0.182202 1.405555,-1.171296 z m 4.216667,-4.216667 c 0,-0.937037 -0.234259,-1.171296 -1.171296,-1.171296 -0.937037,0 -1.171297,0.234259 -1.171297,1.171296 0,0.937037 0.23426,1.171296 1.171297,1.171296 0.937037,0 1.171296,-0.234259 1.171296,-1.171296 z M 175.70384,10.042937 c 0.94603,-1.1398915 0.15755,-1.3520109 -1.0038,-0.270047 -0.8114,0.755937 -0.88621,0.984147 -0.32261,0.984147 0.40357,0 1.00046,-0.321345 1.32641,-0.7141 z"
     id="path2842" />
  <rect
     style="fill:#000000;fill-opacity:1"
     id="rect2852"
     width="53.41111"
     height="27.642593"
     x="8.4333334"
     y="12.05" />
  <text
     xml:space="preserve"
     style="font-size:24px;font-style:normal;font-weight:normal;fill:#ff6600;fill-opacity:1;stroke:none;font-family:Blackoak Std;-inkscape-font-specification:Blackoak Std"
     x="1.4055548"
     y="27.259258"
     id="text2828"><tspan
       sodipodi:role="line"
       id="tspan2830"
       x="1.4055548"
       y="27.259258"
       style="font-size:36px;fill:#ff6600">tiny</tspan></text>
  <rect
     style="fill:#000000;fill-opacity:1"
     id="rect2846"
     width="98.857407"
     height="51.537037"
     x="252.53148"
     y="0.33703613" />
  <text
     xml:space="preserve"
     style="font-size:36px;font-style:normal;font-weight:normal;fill:#ffffff;fill-opacity:1;stroke:none;font-family:Blackoak Std;-inkscape-font-specification:Blackoak Std"
     x="162.9537"
     y="35.077778"
     id="text2854"><tspan
       sodipodi:role="line"
       id="tspan2856"
       x="162.9537"
       y="35.077778">q</tspan></text>
  <text
     xml:space="preserve"
     style="font-size:36px;font-style:normal;font-weight:normal;fill:#ffffff;fill-opacity:1;stroke:none;font-family:Blackoak Std;-inkscape-font-specification:Blackoak Std"
     x="208.3307"
     y="42.761288"
     id="text2854-1"><tspan
       sodipodi:role="line"
       id="tspan2856-7"
       x="208.3307"
       y="42.761288">uiz</tspan></text>
</svg>
